<svg width="24" height="24" viewBox="0 0 24 24" fill="none" xmlns="http://www.w3.org/2000/svg">
  <path d="M12 2C9.56 2.00578 7.21839 2.95072 5.4443 4.67157C3.67022 6.39242 2.63337 8.70463 2.54 11.14C2.45 13.44 3.14 15.75 4.46 17.67C5.78 19.59 7.69 21.13 10 21.99V22H10.34C10.5 22 10.62 22 10.79 22H13.2C13.37 22 13.5 22 13.66 22H14V21.99C16.3 21.13 18.21 19.6 19.53 17.67C20.85 15.74 21.54 13.46 21.45 11.15C21.3567 8.70463 20.3198 6.39242 18.5457 4.67157C16.7716 2.95072 14.43 2.00578 12 2Z" stroke="#ec4899" stroke-width="1.5" stroke-linecap="round" stroke-linejoin="round"/>
  <path d="M7 10.8C7 8.15 9 6 12 6C12 9.32 10 10.5 10 12.8C10 14.28 10.97 15.5 12.2 15.9C11.6 16 11 16 10.2 16C8.4 16 7 14.64 7 12.8V10.8Z" stroke="#ec4899" stroke-width="1.5" stroke-linecap="round" stroke-linejoin="round"/>
</svg>